HIERARCHY
ROOT Hips
{
  OFFSET 279.157 85.6768 304.565
  CHANNELS 6 Xposition Yposition Zposition Zrotation Xrotation Yrotation
  JOINT LeftUpLeg
  {
    OFFSET 8.64259 1.95398 -2.38835
    CHANNELS 3 Zrotation Xrotation Yrotation
    JOINT LeftLeg
    {
      OFFSET 43.7702 0 0
      CHANNELS 3 Zrotation Xrotation Yrotation
      JOINT LeftFoot
      {
        OFFSET 40.6238 0 0
        CHANNELS 3 Zrotation Xrotation Yrotation
        JOINT LeftToeBase
        {
          OFFSET 12.7242 0 0
          CHANNELS 3 Zrotation Xrotation Yrotation
          End Site
          {
            OFFSET 0 0 0
          }
        }
      }
    }
  }
  JOINT RightUpLeg
  {
    OFFSET -8.2249 1.95398 -2.59336
    CHANNELS 3 Zrotation Xrotation Yrotation
    JOINT RightLeg
    {
      OFFSET 43.5653 0 0
      CHANNELS 3 Zrotation Xrotation Yrotation
      JOINT RightFoot
      {
        OFFSET 40.6238 0 0
        CHANNELS 3 Zrotation Xrotation Yrotation
        JOINT RightToeBase
        {
          OFFSET 12.7242 0 0
          CHANNELS 3 Zrotation Xrotation Yrotation
          End Site
          {
            OFFSET 0 0 0
          }
        }
      }
    }
  }
  JOINT Spine
  {
    OFFSET 0.165834 0.87714 6.61349
    CHANNELS 3 Zrotation Xrotation Yrotation
    JOINT Spine1
    {
      OFFSET 7.38963 1.71661e-005 0
      CHANNELS 3 Zrotation Xrotation Yrotation
      JOINT Spine2
      {
        OFFSET 11.9445 1.14441e-005 0
        CHANNELS 3 Zrotation Xrotation Yrotation
        JOINT Spine3
        {
          OFFSET 14.7254 4.19617e-005 0
          CHANNELS 3 Zrotation Xrotation Yrotation
          JOINT Spine4
          {
            OFFSET 10.9679 0 0
            CHANNELS 3 Zrotation Xrotation Yrotation
            JOINT RightShoulder
            {
              OFFSET 2.46616 -1.6653 3.69651
              CHANNELS 3 Zrotation Xrotation Yrotation
              JOINT RightArm
              {
                OFFSET 13.0012 0 0
                CHANNELS 3 Zrotation Xrotation Yrotation
                JOINT RightForeArm
                {
                  OFFSET 28.7848 1.52588e-005 0
                  CHANNELS 3 Zrotation Xrotation Yrotation
                  JOINT RightHand
                  {
                    OFFSET 26.5688 1.52588e-005 0
                    CHANNELS 3 Zrotation Xrotation Yrotation
                    End Site
                    {
                      OFFSET 0 0 0
                    }
                  }
                }
              }
            }
            JOINT LeftShoulder
            {
              OFFSET 2.38034 -1.29275 -3.7523
              CHANNELS 3 Zrotation Xrotation Yrotation
              JOINT LeftArm
              {
                OFFSET 16.3182 6.10351e-005 0
                CHANNELS 3 Zrotation Xrotation Yrotation
                JOINT LeftForeArm
                {
                  OFFSET 27.0901 0 0
                  CHANNELS 3 Zrotation Xrotation Yrotation
                  JOINT LeftHand
                  {
                    OFFSET 24.5451 1.52588e-005 0
                    CHANNELS 3 Zrotation Xrotation Yrotation
                    End Site
                    {
                      OFFSET 0 0 0
                    }
                  }
                }
              }
            }
            JOINT Neck
            {
              OFFSET 5.0226 -0.0266342 0
              CHANNELS 3 Zrotation Xrotation Yrotation
              JOINT Head
              {
                OFFSET 6.69364 2.86102e-005 0
                CHANNELS 3 Zrotation Xrotation Yrotation
                End Site
                {
                  OFFSET 0 0 0
                }
              }
            }
          }
        }
      }
    }
  }
}
MOTION
Frames:	6
Frame Time:	0.0416667
-279.909 93.4117 287.896 103.369 38.6941 87.0293 -168.534 -13.6319 98.2837 -42.1379 14.1942 3.33866 62.932 1.96003 1.55358 18.5202 -6.9801 3.963 177.126 14.9748 97.6595 -28.4702 -7.50701 1.77326 63.5049 -1.12044 2.42458 18.191 3.3948 1.25077 -0.417524 7.81141 -90.6512 11.2439 -1.13415 -1.18431 -0.427085 -1.18517 -1.13326 -22.9598 -0.725819 -1.47038 -2.94719 -0.725832 -1.47038 91.377 -29.4398 -104.213 46.2238 -0.488781 7.3678 5.78241 -6.08337 -4.43956 -21.733 0.189774 -7.94514 -89.011 -52.9877 80.7834 -18.0356 7.30686 -21.067 3.91541 16.0958 -10.927 -5.69947 0.228915 -15.3352 -0.212552 1.64699 -2.97249 -6.62223 2.00323 0.967357 
-273.19 94.4767 283.12 105.743 36.4428 86.116 -168.019 -2.69694 100.434 -57.792 13.0284 2.29019 53.1187 -4.41674 -0.512174 5.21264 -13.1467 -0.250264 177.462 7.46605 98.4428 -28.9295 -12.1311 1.49688 66.6721 -3.74213 -2.4765 22.0018 2.08946 1.31147 0.125378 8.12982 -90.6331 10.612 -0.0414729 -1.25549 -1.05955 -0.0966895 -1.25246 -23.5903 0.337731 -1.20993 -3.57768 0.337746 -1.20994 91.1962 -29.6223 -104.512 45.1219 -2.35762 4.45994 5.50628 -8.91218 -7.31909 -21.6941 0.385359 -9.81188 -88.2971 -52.6993 81.7679 -21.5198 8.15134 -13.6728 3.35927 15.9872 -10.5134 1.55578 -0.28645 -9.22988 3.14936 0.845338 -2.6864 -6.96185 1.20876 1.81985 
-268.214 95.5935 279.357 103.793 41.0461 85.7035 -172.144 11.7006 94.6004 -63.0885 10.4008 2.91449 64.9929 3.80315 1.5834 7.32864 -12.5116 1.03323 176.614 3.48896 97.2177 -26.2678 -6.92821 1.73567 70.3324 -5.02765 0.147554 21.2789 2.07439 2.57507 0.218423 7.99839 -90.4844 10.8785 0.211018 -0.982827 -0.792827 0.16756 -0.99117 -23.3254 0.496618 -0.873991 -3.31276 0.49663 -0.873993 90.9882 -30.0588 -104.772 42.2697 -5.38232 0.707447 4.83364 -15.3019 -10.9279 -23.1587 0.043968 -9.39255 -88.1167 -52.4313 81.984 -23.2802 8.47319 -7.69284 2.17546 16.8911 -8.63889 0.484223 -0.130014 -5.96859 2.56446 -1.27776 -2.73738 -5.11354 -0.900735 2.9456 
-262.866 96.2852 274.376 102.638 40.8947 83.5013 -173.996 18.1609 89.1804 -48.7904 2.23918 0.565913 69.6142 6.64839 0.119434 10.2752 -13.3047 6.57537 175.565 -1.92651 94.044 -24.0174 -6.38615 0.569134 73.8974 -6.03666 2.39123 22.4118 1.802 2.07589 0.7481 8.05509 -90.1221 10.7679 1.43343 -0.375477 -0.90238 1.41551 -0.438213 -23.4439 1.47998 0.0727751 -3.43124 1.47999 0.0727858 90.9751 -29.7424 -104.911 38.5217 -6.97613 -4.51147 3.85054 -16.1854 -13.1696 -25.7126 0.0145843 -9.05231 -87.8958 -51.1581 82.0865 -25.6406 7.50601 -1.12915 1.99952 12.5634 -8.19949 -0.254194 -0.145689 -7.54101 3.13105 -2.65556 -2.26929 -4.99115 -2.31717 3.0204 
-257.39 95.5982 269.42 102.27 39.0263 81.8694 -175.169 17.4175 86.4964 -21.081 -0.684619 -1.75125 61.2692 2.43742 -0.550094 15.372 -9.70443 5.94206 174.688 -6.01727 91.6507 -25.4305 -8.6207 -0.749387 78.7292 -7.96378 3.025 23.34 2.04037 -0.865686 1.10062 8.19986 -89.9652 10.4769 2.20837 -0.126677 -1.19217 2.20065 -0.223812 -23.7418 2.14429 0.543195 -3.72916 2.1443 0.54319 90.8517 -28.0576 -105.784 34.3719 -7.82102 -10.7115 2.42377 -18.6004 -16.9144 -25.7044 -0.757264 -5.78704 -87.4394 -53.308 83.1165 -24.7648 4.66612 6.22904 3.41912 12.3193 -10.3211 -1.67891 -0.10299 -6.42839 4.3271 -2.11671 2.23551 -4.83796 -2.50694 1.103 
-250.928 94.1115 263.357 102.671 37.8743 81.2759 -177.424 17.545 86.2011 -7.156 -4.90217 -2.35672 62.4093 2.21766 -2.37143 14.3428 -10.3683 5.94843 173.127 -12.6556 89.6887 -24.8677 -10.3677 -1.10911 81.9473 -10.0445 1.99013 25.6927 1.07489 -0.0229229 1.24955 8.32003 -89.9579 10.2368 2.50892 -0.130615 -1.43172 2.50072 -0.240986 -23.9855 2.43212 0.629918 -3.97286 2.43209 0.629912 89.9758 -28.2579 -107.493 28.7225 -8.05129 -15.658 2.21169 -17.3965 -17.6981 -28.1984 -0.334565 -7.40685 -87.6402 -55.3796 83.158 -24.3016 3.05948 11.6492 2.913 5.83417 -8.95668 -1.42445 -0.107881 -6.46459 4.7878 -1.24933 4.22152 -3.69525 -2.00388 0.543793 
